<?xml version="1.0" encoding="UTF-8"?>
<svg width="32px" height="32px" viewBox="0 0 32 32" version="1.1" xmlns="http://www.w3.org/2000/svg">
    <g stroke="none" stroke-width="1" fill="none" fill-rule="evenodd">
        <path d="M25,22 C27.7614237,22 30,19.7614237 30,17 C30,14.2385763 27.7614237,12 25,12 C24.9330847,12 24.8667106,12.0023846 24.8009314,12.0070868 C24.2616769,9.19401855 21.7424,7 18.75,7 C15.2979944,7 12.5,9.79799444 12.5,13.25 C12.5,13.3435425 12.5021575,13.4366695 12.5064504,13.5293465 C12.4575703,13.5271088 12.4083882,13.525974 12.359375,13.525974 C9.46953538,13.525974 7.125,15.8704694 7.125,18.760309 C7.125,21.6501486 9.46953538,24 12.359375,24 L25,24 L25,22 Z" fill="#60A5FA" fill-rule="nonzero"></path>
    </g>
</svg>
